# xmcd
#
# Track frame offsets: 
#        150
#        13095
#        28785
#        43672
#        56330
#        76587
#        95660
#        118762
#        136727
#        160860
#        191785
#        205957
#        226385
#        254675
#        294132
#        307160
#
# Disc length: 4457 seconds
#
# Revision: 1
# Processed by: cddbd v1.5.2PL0 Copyright (c) Steve Scherf et al.
# Submitted via: ExactAudioCopy v1.0b2
#
DISCID=dc116710
DTITLE=Quatuors Wiener Konzethaus  - Quatuors Wiener Konzethaus 8
DYEAR=1900
DGENRE=Chamber Music
TTITLE0=Op.3 №5 F-Dur 1-Presto
TTITLE1=Op.3 №5 F-Dur 2-Andante cantabile
TTITLE2=Op.3 №5 F-Dur 3-Menuettto
TTITLE3=Op.3 №5 F-Dur 4-Scherzando
TTITLE4=Op.17 №1 E-dur 1-Moderato
TTITLE5=Op.17 №1 E-dur 2-Menuetto Allegretto
TTITLE6=Op.17 №1 E-dur 3-Adagio
TTITLE7=Op.17 №1 E-dur 4-Presto
TTITLE8=Op.74 №3 g-moll 1-Allegro
TTITLE9=Op.74 №3 g-moll 2-Largo assai
TTITLE10=Op.74 №3 g-moll 3-Menuetto Allegretto
TTITLE11=Op.74 №3 g-moll 4-Finale Allegro con brio
TTITLE12=Op.76 №1G-Dur 1-Allegro con spirito
TTITLE13=Op.76 №1G-Dur 2-Adagio sostenuto
TTITLE14=Op.76 №1G-Dur 3-Menuettto Presto
TTITLE15=Op.76 №1G-Dur 4-Allegro ma non troppo
EXTD=
EXTT0=
EXTT1=
EXTT2=
EXTT3=
EXTT4=
EXTT5=
EXTT6=
EXTT7=
EXTT8=
EXTT9=
EXTT10=
EXTT11=
EXTT12=
EXTT13=
EXTT14=
EXTT15=
PLAYORDER=
